<svg xmlns="http://www.w3.org/2000/svg" width="100%" viewBox="0 0 1080 1080" height="150" xmlns:v="https://vecta.io/nano"><path fill="#8c52ff" d="M629 1081H1.036V1.099h1079.803V1081H629m-330.255-95.584c1.092 4.776 1.243 10.06 3.486 14.214 3.809 7.054 11.055 8.246 18.602 8.243l432.974-.036c1.333 0 2.671.039 3.998-.059 13.274-.98 19.891-7.951 20.092-21.258l.109-19.997c.346-10.868 7.912-18.316 18.822-18.611 5.995-.162 11.998-.036 17.997-.078 15.765-.11 23.043-7.289 23.052-22.928l.003-163.49c-.007-15.98-7.287-23.245-23.209-23.252l-110.993-.006c-37.998 0-75.995-.042-113.993.026-13.795.024-21.26 7.551-21.53 21.355-.036 1.833-.01 3.666-.01 5.5l-.021 161.99c-.012 13.381-7.393 20.684-20.739 20.796l-17.999.003c-13.729-.089-21.006-7.278-21.192-20.977-.095-6.998.143-14.007-.159-20.994-.453-10.485-7.932-17.638-18.387-17.823-6.831-.121-13.665-.012-20.498-.039-13.471-.055-20.253-6.744-20.51-20.211-.035-1.833-.013-3.666-.013-5.5V218.824l.019-5.999c.314-12.448 7.267-19.431 19.681-19.638 6.498-.108 12.999.008 19.498-.034 13.301-.085 20.2-7.009 20.339-20.446l.063-19.998c.344-11.874 7.765-19.233 19.58-19.513 5.83-.138 11.665-.037 17.498-.032 16.125.015 22.828 6.676 22.833 22.735l.018 102.994c.001 2.327.035 4.679.359 6.977 1.516 10.747 8.449 16.907 19.267 17.103 5.998.108 11.999.024 17.999.028 15.529.011 22.213 6.709 22.363 22.15.074 7.649-.168 15.379.857 22.92 1.203 8.847 9.091 14.898 17.996 14.903l169.49.006c13.659-.01 21.341-7.593 21.362-21.375l.002-166.49c-.022-14.419-7.654-21.859-21.986-21.945-11.332-.068-22.672.191-33.993-.17-11.421-.364-18.462-7.729-18.815-19.147-.185-5.994.215-12.014-.152-17.992-.249-4.069-.617-8.423-2.25-12.057-3.744-8.333-11.216-10.663-19.815-10.661l-420.974.031c-13.802.002-20.945 7.165-21.125 20.865-.101 7.658.199 15.362-.545 22.961-.943 9.628-8.243 15.862-17.909 16.092-6.829.163-13.665.031-20.498.075-13.737.088-20.843 7.225-21.009 20.992-.092 7.659.264 15.371-.526 22.96-1.016 9.766-8.182 15.766-17.961 15.989-5.997.137-12.017.352-17.994-.011-13.605-.827-23.5 5.836-23.479 23.177l.177 648.46c0 1.833-.041 3.67.052 5.499.523 10.257 7.717 17.434 17.97 17.704 6.828.18 13.665.047 20.498.063 13.806.032 20.973 7.006 21.24 20.802.116 5.997-.018 11.999.04 17.998.133 13.825 7.233 20.94 20.965 21.031l20.498.074c9.7.227 16.846 6.362 17.911 16.076.741 6.758.422 13.633.577 21.433z"/><path fill="#fff" d="M298.745 984.927c-.155-7.311.165-14.186-.576-20.944-1.065-9.714-8.211-15.849-17.911-16.076-6.829-.16-13.665-.029-20.498-.074-13.731-.091-20.832-7.206-20.965-21.031l-.04-17.998c-.267-13.796-7.434-20.77-21.24-20.802-6.833-.016-13.669.117-20.498-.063-10.253-.27-17.447-7.448-17.97-17.704-.093-1.829-.052-3.666-.052-5.499l-.177-648.46c-.022-17.341 9.874-24.004 23.479-23.177 5.977.363 11.998.148 17.994.011 9.779-.223 16.945-6.223 17.961-15.989.789-7.59.433-15.302.526-22.96.166-13.767 7.272-20.903 21.009-20.992l20.498-.075c9.666-.23 16.966-6.464 17.909-16.092.744-7.599.445-15.303.545-22.961.18-13.699 7.323-20.863 21.125-20.865l420.974-.031c8.6-.002 16.071 2.328 19.815 10.661 1.633 3.634 2.001 7.988 2.25 12.057.366 5.978-.034 11.998.152 17.992.353 11.418 7.393 18.783 18.815 19.147 11.321.361 22.662.102 33.993.17 14.332.086 21.964 7.526 21.986 21.945l-.002 166.49c-.021 13.782-7.703 21.366-21.362 21.375-56.497.04-112.993.025-169.49-.006-8.905-.005-16.794-6.056-17.996-14.903-1.025-7.541-.782-15.271-.857-22.92-.15-15.441-6.834-22.14-22.363-22.15-6-.004-12.001.081-17.999-.028-10.817-.196-17.751-6.355-19.267-17.103-.324-2.297-.357-4.65-.359-6.977l-.018-102.994c-.005-16.06-6.709-22.721-22.833-22.735-5.833-.005-11.669-.106-17.498.032-11.815.28-19.236 7.639-19.58 19.513-.193 6.661.005 13.332-.063 19.998-.139 13.437-7.038 20.361-20.339 20.446-6.499.042-13.001-.074-19.498.034-12.414.207-19.368 7.189-19.681 19.638-.05 1.999-.019 4-.019 5.999v643.461l.013 5.5c.256 13.466 7.039 20.156 20.51 20.211l20.498.039c10.454.185 17.933 7.339 18.387 17.823.302 6.987.064 13.996.159 20.994.186 13.699 7.463 20.889 21.192 20.977l17.999-.003c13.346-.112 20.727-7.415 20.739-20.796l.021-161.99.01-5.5c.27-13.803 7.736-21.33 21.53-21.355l113.993-.026 110.993.006c15.922.007 23.202 7.272 23.209 23.252l-.003 163.49c-.009 15.639-7.287 22.818-23.052 22.928-5.999.042-12.002-.084-17.997.078-10.91.295-18.476 7.743-18.822 18.611-.212 6.66-.008 13.332-.109 19.997-.201 13.307-6.818 20.279-20.092 21.258-1.327.098-2.665.059-3.998.059-144.325.002-288.649-.01-432.974.036-7.547.002-14.793-1.189-18.602-8.243-2.243-4.154-2.394-9.438-3.486-14.703z"/></svg>