<svg xmlns="http://www.w3.org/2000/svg" width="100%" viewBox="0 0 231 238" height="150" xmlns:v="https://vecta.io/nano"><path fill="#f8f8f8" d="M113.438 105.299l2.737 7.025c1.161-.619 2.288-.844 2.443-1.36 2.089-6.973 4.842-13.878 5.809-21.02.997-7.364.441-14.976.14-22.462-.181-4.488 1.51-5.92 5.814-5.604 4.143.304 8.335.23 12.49.017 3.52-.181 4.744 1.411 4.821 4.692.405 17.185.271 34.014-7.678 50.211-7.264 14.801-6.417 15.217-23.099 15.217-3.499 0-7.024-.267-10.491.066-4.524.435-7.14-1.162-8.566-5.588-1.528-4.742-3.242-9.514-5.605-13.878-7.997-14.768-5.917-30.743-6.094-46.468-.036-3.187 1.566-4.361 4.704-4.245 4.66.171 9.339.221 13.993-.012 3.802-.19 5.082 1.623 5.064 5.053-.027 5.332.217 10.675-.054 15.994-.387 7.605.511 14.938 3.572 22.362z"/><path fill="#f4f4f4" d="M94.964 172.049c-7.801 1.335-5.363-4.513-6.227-8.518l-7.166-.319-.74 8.403H69.635c-.94-9.432-.684-18.64 3.346-27.637 4.429-9.89 1.435-8.154 11.827-8.167 11.661-.014 8.254-1.613 12.968 8.751 3.975 8.742 3.605 17.729 3.134 27.487h-5.946m-6.894-19.268l-2.05-7.093-1.701-.009-2.764 7.55c2.491 0 4.118 0 6.515-.448z"/><path fill="#f6f6f6" d="M132.388 137.201c4.134 4.411 5.878 15.76 2.626 20.203-1.622 2.215-4.896 3.605-7.7 4.455-2.398.727-5.192.15-8.105.15l-.574 9.632h-11.356v-36.329l25.109 1.889m-8.303 8.988l-5.023-.276v5.779c4.578 1.112 6.724-.07 5.023-5.503z"/><path fill="#f4f4f4" d="M165.355 144.309c-1.951.962-3.774 1.52-6.052 2.217v15.052l5.925.819v9.245h-24.995v-9.296l6.012-.654v-15.179c-6.859-1.66-6.859-1.66-5.996-10.354h25.235c0 2.586 0 5.166-.129 8.15z"/></svg>